<svg width="32" height="32" viewBox="0 0 32 32" fill="none" xmlns="http://www.w3.org/2000/svg">
<path fill-rule="evenodd" clip-rule="evenodd" d="M23.5425 19.1114C23.5063 19.1175 23.4819 19.1056 23.4695 19.0759C24.4283 18.6338 25.3653 18.1552 26.28 17.6399C26.0555 16.4493 26.311 15.3679 27.0465 14.3956C26.2843 14.3083 25.5419 14.1369 24.82 13.8814C23.7801 13.3705 22.746 12.8504 21.7175 12.3213C21.0813 12.1284 20.4363 11.9629 19.783 11.8249C19.48 11.7792 19.176 11.7674 18.8705 11.7895C18.3226 11.9319 18.1525 12.2628 18.3595 12.7823C17.7087 12.3743 17.1915 11.8365 16.8082 11.169C16.7615 11.3518 16.737 11.5409 16.7352 11.7363C16.4837 11.5556 16.2647 11.3428 16.0782 11.0981C15.814 10.6259 15.4913 10.1945 15.111 9.80388C14.5547 9.46402 13.9464 9.32219 13.286 9.37839C13.4518 9.57209 13.5248 9.79076 13.505 10.0343C12.797 9.75963 12.067 9.57642 11.315 9.48476C12.2498 10.0264 13.0346 10.7296 13.6692 11.5945C13.6943 11.624 13.6882 11.6476 13.651 11.6654C11.8018 10.8745 9.89159 10.7031 7.92049 11.1512C7.36978 11.2981 6.83447 11.4872 6.31449 11.7186C6.89853 11.7659 7.45818 11.9018 7.99349 12.1263C5.86401 12.948 4.20936 14.3131 3.0295 16.2216C3.58382 15.9238 4.18001 15.7229 4.81799 15.6188C4.89099 15.5952 4.96399 15.5952 5.03699 15.6188C2.66325 18.1586 1.87851 21.1074 2.68275 24.4654C2.74888 23.7578 3.04088 23.1551 3.55874 22.6571C3.37789 25.6574 4.60673 27.9267 7.24524 29.4648C7.13212 29.0759 7.01047 28.6858 6.88024 28.2947C6.71088 27.3477 6.72303 26.4022 6.91674 25.4582C10.3739 28.2671 14.3463 29.3606 18.834 28.7379C23.5673 27.8742 27.1016 25.4098 29.4372 21.3452C31.4724 17.4038 31.679 13.3736 30.0577 9.25429C29.3587 7.62557 28.3915 6.17183 27.156 4.89307C27.156 4.86942 27.168 4.85762 27.1925 4.85762C30.5267 8.12477 32.1265 12.0723 31.9922 16.7003C31.6195 21.6743 29.3872 25.6396 25.2945 28.5961C21.5364 31.0859 17.4119 31.9369 12.921 31.149C11.3293 30.8409 9.82673 30.3034 8.41324 29.5357C8.43784 30.4349 8.71159 31.2561 9.23448 32C7.03533 31.1356 5.10693 29.8768 3.44924 28.2238C1.29451 25.8468 0.369854 23.0694 0.675249 19.8914C0.745292 19.2116 0.842638 18.5379 0.967248 17.8704C0.885708 17.9484 0.794458 18.0134 0.693499 18.0654C0.462345 18.2427 0.2555 18.4436 0.0729999 18.6681C0.0486544 18.6918 0.0243455 18.6918 0 18.6681C0.172791 17.6486 0.495195 16.6736 0.967248 15.7429C1.57245 14.5018 2.2477 13.3022 2.993 12.144C2.48561 12.2101 2.01717 12.3814 1.58775 12.6582C2.44871 10.9464 3.68361 9.53405 5.29249 8.42105C6.27708 7.80084 7.34773 7.39308 8.50449 7.19778C7.98553 6.16396 7.63878 5.0766 7.46424 3.93573C7.32488 2.59602 7.45873 1.28411 7.86574 0C8.7014 1.23745 9.71731 2.31889 10.9135 3.24432C12.4144 4.3698 14.0082 5.3626 15.695 6.22271C17.3313 7.03525 18.9982 7.77985 20.6955 8.45651C22.3292 11.7452 25.0302 13.518 28.7985 13.7751C27.6538 14.9701 26.9786 16.3824 26.7727 18.0122C25.6992 18.3867 24.6225 18.7531 23.5425 19.1114Z" fill="white"/>
<path fill-rule="evenodd" clip-rule="evenodd" d="M15.8329 9.18483C15.5709 9.16056 15.3084 9.13633 15.0464 9.11206C15.5802 8.711 16.1761 8.58366 16.834 8.73003C17.6813 8.98225 18.4381 9.40066 19.1042 9.98528C19.2282 10.292 19.4249 10.5406 19.6941 10.7312C20.1632 11.0872 20.6519 11.4147 21.1599 11.7135C21.2028 11.7373 21.2028 11.7555 21.1599 11.7681C20.6497 11.5566 20.1253 11.3928 19.5868 11.2769C19.2032 11.2512 18.8218 11.2694 18.4428 11.3315C17.7299 11.3036 17.2708 10.9397 17.0664 10.24C17.0091 10.0406 17.0031 9.84051 17.0485 9.63963C16.9494 9.50327 16.8186 9.40627 16.6552 9.34856C16.3899 9.24698 16.1157 9.1924 15.8329 9.18483Z" fill="black"/>
<path fill-rule="evenodd" clip-rule="evenodd" d="M23.4274 19.0485C23.3539 19.0485 23.3172 19.0837 23.3172 19.154C22.2975 19.1689 21.3795 19.4679 20.5631 20.0509C20.3483 20.2392 20.128 20.4209 19.9022 20.5961C19.6374 19.9443 19.6128 19.2818 19.8287 18.6089C19.8236 18.5817 19.8111 18.5582 19.792 18.5385C18.509 18.0457 17.187 17.9284 15.8261 18.1868C15.4479 18.2666 15.0807 18.378 14.7245 18.5209C14.5435 20.4656 15.0329 22.2359 16.1933 23.8318C15.8129 23.9728 15.4336 24.1135 15.055 24.2539C15.9436 25.8051 17.2781 26.8193 19.0576 27.2962C17.2447 27.6381 15.5066 27.439 13.8432 26.6983C12.5129 26.022 11.552 25.0196 10.9606 23.6912C10.4748 22.4939 10.2422 21.2512 10.2629 19.963C9.48821 20.1983 8.71707 20.4445 7.94945 20.7016C8.04562 19.4167 8.52913 18.2853 9.39993 17.3075C9.12643 17.3576 8.85716 17.4338 8.59207 17.5361C8.6318 17.0063 8.82154 16.5256 9.16124 16.0941C9.38227 15.8296 9.63318 15.5952 9.91403 15.3907C9.44513 14.8375 8.84533 14.48 8.11469 14.3179C7.881 14.2893 7.64845 14.2541 7.41699 14.2124C8.75324 13.1099 10.3077 12.5707 12.0806 12.5945C11.3557 12.8947 10.7192 13.3168 10.1711 13.8607C11.3726 13.8867 12.4498 14.2442 13.4025 14.9334C17.6629 14.4906 21.5307 15.4578 25.0064 17.8351C24.424 18.1727 23.8974 18.5771 23.4274 19.0485Z" fill="white"/>
</svg>
