<svg width="33" height="32" viewBox="0 0 33 32" fill="none" xmlns="http://www.w3.org/2000/svg">
<g clip-path="url(#clip0_207_299)">
<path d="M28.6601 29.44C30.0739 29.44 31.2201 28.2939 31.2201 26.88C31.2201 25.4662 30.0739 24.32 28.6601 24.32C27.2462 24.32 26.1001 25.4662 26.1001 26.88C26.1001 28.2939 27.2462 29.44 28.6601 29.44Z" fill="white"/>
<path d="M10.1 29.44C11.5139 29.44 12.66 28.2939 12.66 26.88C12.66 25.4662 11.5139 24.32 10.1 24.32C8.68619 24.32 7.54004 25.4662 7.54004 26.88C7.54004 28.2939 8.68619 29.44 10.1 29.44Z" fill="white"/>
<path d="M30.58 21.12H10.5934L11.0203 20.4275C11.2034 20.1306 11.2571 19.7715 11.1694 19.4336L10.7528 17.8298L29.3019 16.8659C30.0053 16.8301 30.58 16.224 30.58 15.52V7.04003C30.58 6.33603 30.004 5.76003 29.3 5.76003H7.61616L7.36592 4.79811C7.29463 4.52376 7.13429 4.28083 6.91004 4.10744C6.6858 3.93404 6.41034 3.83999 6.12688 3.84003H1.78C1.44052 3.84003 1.11495 3.97488 0.874903 4.21493C0.634857 4.45498 0.5 4.78055 0.5 5.12003C0.5 5.4595 0.634857 5.78508 0.874903 6.02512C1.11495 6.26517 1.44052 6.40003 1.78 6.40003H5.13744L8.55504 19.5488L7.21104 21.728C7.09162 21.922 7.02611 22.1443 7.02128 22.372C7.01644 22.5997 7.07245 22.8245 7.18352 23.0234C7.29443 23.2223 7.45639 23.388 7.65271 23.5034C7.84903 23.6189 8.07258 23.6798 8.30032 23.68H30.58C30.9195 23.68 31.2451 23.5452 31.4851 23.3051C31.7251 23.0651 31.86 22.7395 31.86 22.4C31.86 22.0605 31.7251 21.735 31.4851 21.4949C31.2451 21.2549 30.9195 21.12 30.58 21.12Z" fill="white"/>
</g>
<defs>
<clipPath id="clip0_207_299">
<rect width="32" height="32" fill="white" transform="translate(0.5)"/>
</clipPath>
</defs>
</svg>
