<svg width="33" height="32" viewBox="0 0 33 32" fill="none" xmlns="http://www.w3.org/2000/svg">
<path fill-rule="evenodd" clip-rule="evenodd" d="M24.0425 19.1114C24.0063 19.1175 23.9819 19.1056 23.9695 19.0759C24.9283 18.6338 25.8653 18.1552 26.78 17.6399C26.5555 16.4493 26.811 15.3679 27.5465 14.3956C26.7843 14.3083 26.0419 14.1369 25.32 13.8814C24.2801 13.3705 23.246 12.8504 22.2175 12.3213C21.5813 12.1284 20.9363 11.9629 20.283 11.8249C19.98 11.7792 19.676 11.7674 19.3705 11.7895C18.8226 11.9319 18.6525 12.2628 18.8595 12.7823C18.2087 12.3743 17.6915 11.8365 17.3082 11.169C17.2615 11.3518 17.237 11.5409 17.2352 11.7363C16.9837 11.5556 16.7647 11.3428 16.5782 11.0981C16.314 10.6259 15.9913 10.1945 15.611 9.80388C15.0547 9.46402 14.4464 9.32219 13.786 9.37839C13.9518 9.57209 14.0248 9.79076 14.005 10.0343C13.297 9.75963 12.567 9.57642 11.815 9.48476C12.7498 10.0264 13.5346 10.7296 14.1692 11.5945C14.1943 11.624 14.1882 11.6476 14.151 11.6654C12.3018 10.8745 10.3916 10.7031 8.42049 11.1512C7.86978 11.2981 7.33447 11.4872 6.81449 11.7186C7.39853 11.7659 7.95818 11.9018 8.49349 12.1263C6.36401 12.948 4.70936 14.3131 3.5295 16.2216C4.08382 15.9238 4.68001 15.7229 5.31799 15.6188C5.39099 15.5952 5.46399 15.5952 5.53699 15.6188C3.16325 18.1586 2.37851 21.1074 3.18275 24.4654C3.24888 23.7578 3.54088 23.1551 4.05874 22.6571C3.87789 25.6574 5.10673 27.9267 7.74524 29.4648C7.63212 29.0759 7.51047 28.6858 7.38024 28.2947C7.21088 27.3477 7.22303 26.4022 7.41674 25.4582C10.8739 28.2671 14.8463 29.3606 19.334 28.7379C24.0673 27.8742 27.6016 25.4098 29.9372 21.3452C31.9724 17.4038 32.179 13.3736 30.5577 9.25429C29.8587 7.62557 28.8915 6.17183 27.656 4.89307C27.656 4.86942 27.668 4.85762 27.6925 4.85762C31.0267 8.12477 32.6265 12.0723 32.4922 16.7003C32.1195 21.6743 29.8872 25.6396 25.7945 28.5961C22.0364 31.0859 17.9119 31.9369 13.421 31.149C11.8293 30.8409 10.3267 30.3034 8.91324 29.5357C8.93784 30.4349 9.21159 31.2561 9.73448 32C7.53533 31.1356 5.60693 29.8768 3.94924 28.2238C1.79451 25.8468 0.869854 23.0694 1.17525 19.8914C1.24529 19.2116 1.34264 18.5379 1.46725 17.8704C1.38571 17.9484 1.29446 18.0134 1.1935 18.0654C0.962345 18.2427 0.7555 18.4436 0.573 18.6681C0.548654 18.6918 0.524345 18.6918 0.5 18.6681C0.672791 17.6486 0.995195 16.6736 1.46725 15.7429C2.07245 14.5018 2.7477 13.3022 3.493 12.144C2.98561 12.2101 2.51717 12.3814 2.08775 12.6582C2.94871 10.9464 4.18361 9.53405 5.79249 8.42105C6.77708 7.80084 7.84773 7.39308 9.00449 7.19778C8.48553 6.16396 8.13878 5.0766 7.96424 3.93573C7.82488 2.59602 7.95873 1.28411 8.36574 0C9.2014 1.23745 10.2173 2.31889 11.4135 3.24432C12.9144 4.3698 14.5082 5.3626 16.195 6.22271C17.8313 7.03525 19.4982 7.77985 21.1955 8.45651C22.8292 11.7452 25.5302 13.518 29.2985 13.7751C28.1538 14.9701 27.4786 16.3824 27.2727 18.0122C26.1992 18.3867 25.1225 18.7531 24.0425 19.1114Z" fill="white"/>
<path fill-rule="evenodd" clip-rule="evenodd" d="M16.3329 9.18483C16.0709 9.16056 15.8084 9.13633 15.5464 9.11206C16.0802 8.711 16.6761 8.58366 17.334 8.73003C18.1813 8.98225 18.9381 9.40066 19.6042 9.98528C19.7282 10.292 19.9249 10.5406 20.1941 10.7312C20.6632 11.0872 21.1519 11.4147 21.6599 11.7135C21.7028 11.7373 21.7028 11.7555 21.6599 11.7681C21.1497 11.5566 20.6253 11.3928 20.0868 11.2769C19.7032 11.2512 19.3218 11.2694 18.9428 11.3315C18.2299 11.3036 17.7708 10.9397 17.5664 10.24C17.5091 10.0406 17.5031 9.84051 17.5485 9.63963C17.4494 9.50327 17.3186 9.40627 17.1552 9.34856C16.8899 9.24698 16.6157 9.1924 16.3329 9.18483Z" fill="black"/>
<path fill-rule="evenodd" clip-rule="evenodd" d="M23.9271 19.0485C23.8537 19.0485 23.817 19.0837 23.817 19.154C22.7972 19.1689 21.8792 19.4679 21.0629 20.0509C20.8481 20.2392 20.6278 20.4209 20.4019 20.5961C20.1372 19.9443 20.1126 19.2818 20.3285 18.6089C20.3233 18.5817 20.3109 18.5582 20.2918 18.5385C19.0087 18.0457 17.6868 17.9284 16.3259 18.1868C15.9477 18.2666 15.5804 18.378 15.2242 18.5209C15.0432 20.4656 15.5327 22.2359 16.6931 23.8318C16.3127 23.9728 15.9333 24.1135 15.5547 24.2539C16.4434 25.8051 17.7778 26.8193 19.5573 27.2962C17.7444 27.6381 16.0064 27.439 14.3429 26.6983C13.0126 26.022 12.0518 25.0196 11.4603 23.6912C10.9745 22.4939 10.742 21.2512 10.7626 19.963C9.98796 20.1983 9.21682 20.4445 8.4492 20.7016C8.54538 19.4167 9.02888 18.2853 9.89969 17.3075C9.62619 17.3576 9.35691 17.4338 9.09182 17.5361C9.13156 17.0063 9.32129 16.5256 9.661 16.0941C9.88202 15.8296 10.1329 15.5952 10.4138 15.3907C9.94489 14.8375 9.34509 14.48 8.61445 14.3179C8.38076 14.2893 8.1482 14.2541 7.91675 14.2124C9.25299 13.1099 10.8075 12.5707 12.5803 12.5945C11.8555 12.8947 11.219 13.3168 10.6708 13.8607C11.8723 13.8867 12.9495 14.2442 13.9023 14.9334C18.1627 14.4906 22.0305 15.4578 25.5062 17.8351C24.9238 18.1727 24.3972 18.5771 23.9271 19.0485Z" fill="white"/>
</svg>
